<svg viewBox="0 0 200 200" fill="none" xmlns="http://www.w3.org/2000/svg">
  <!-- Top Blue/Teal shape (#227C9D) -->
  <path
    d="M 100 20 
       A 80 80 0 0 0 28 120 
       C 30 102 42 85 58 76 
       C 72 68 88 70 100 80 
       C 112 90 125 90 135 80
       C 142 72 145 62 140 52
       C 133 42 117 42 110 52
       C 105 60 108 68 115 72"
    stroke="#227C9D"
    stroke-width="16"
    stroke-linecap="round"
    stroke-linejoin="round"
  />
  
  <!-- Bottom Red shape (#FE6D73) -->
  <path
    d="M 100 180 
       A 80 80 0 0 0 172 80 
       C 170 98 158 115 142 124 
       C 128 132 112 130 100 120 
       C 88 110 75 110 65 120
       C 58 128 55 138 60 148
       C 67 158 83 158 90 148
       C 95 140 92 132 85 128"
    stroke="#FE6D73"
    stroke-width="16"
    stroke-linecap="round"
    stroke-linejoin="round"
  />

  <!-- Dots representing people/heads -->
  <circle cx="118" cy="52" r="10" fill="#227C9D" />
  <circle cx="82" cy="148" r="10" fill="#FE6D73" />
  
  <!-- Top-Right Turquoise Accent (#17C3B2) -->
  <path
    d="M 143 37 A 80 80 0 0 1 176 80"
    stroke="#17C3B2"
    stroke-width="16"
    stroke-linecap="round"
  />

  <!-- Bottom-Left Yellow Accent (#FFCB77) -->
  <path
    d="M 57 163 A 80 80 0 0 1 24 120"
    stroke="#FFCB77"
    stroke-width="16"
    stroke-linecap="round"
  />
</svg>
